<svg width="25" height="25" viewBox="0 0 25 25" fill="none" xmlns="http://www.w3.org/2000/svg">
<rect width="25" height="25" fill="#E7E7E7"/>
<g id="Inicio (campanhas)">
<rect x="-1007" y="-263" width="1440" height="1024" rx="16" fill="white"/>
<g id="Frame 24">
<rect x="-625" y="-23" width="675" height="71" rx="8" fill="#F1F1F1"/>
<g id="Group">
<g id="Vector">
<path fill-rule="evenodd" clip-rule="evenodd" d="M12.5 23.4362C6.45918 23.4362 1.56378 18.5408 1.56378 12.5C1.56378 6.45918 6.45918 1.56378 12.5 1.56378C18.5408 1.56378 23.4362 6.45918 23.4362 12.5C23.4388 18.5408 18.5408 23.4362 12.5 23.4362ZM12.1466 11.1058C12.3418 11.301 12.6583 11.301 12.8536 11.1059L15.7944 8.16708C15.9897 7.97194 16.3062 7.97199 16.5014 8.16721L16.8352 8.50104C17.0305 8.6963 17.0305 9.01288 16.8352 9.20814L13.8969 12.1464C13.7017 12.3417 13.7017 12.6583 13.8969 12.8536L16.8357 15.7923C17.0307 15.9874 17.0309 16.3036 16.8361 16.499L16.5015 16.8344C16.3063 17.03 15.9894 17.0302 15.794 16.8348L12.8537 13.8945C12.6584 13.6992 12.3417 13.6992 12.1464 13.8946L9.20814 16.835C9.0129 17.0304 8.69622 17.0304 8.50091 16.8351L8.1649 16.4991C7.96959 16.3038 7.96965 15.9871 8.16503 15.7919L11.1051 12.8538C11.3006 12.6585 11.3006 12.3416 11.105 12.1463L8.16527 9.2107C7.96978 9.01547 7.96967 8.6987 8.16503 8.50334L8.50104 8.16733C8.6963 7.97207 9.01288 7.97207 9.20815 8.16733L12.1466 11.1058Z" fill="#666666"/>
<path fill-rule="evenodd" clip-rule="evenodd" d="M0 12.5C0 5.59694 5.59694 0 12.5 0C19.4031 0 25 5.59694 25 12.5C25 19.4031 19.4031 25 12.5 25C5.59694 25 0 19.4031 0 12.5ZM1.56378 12.5C1.56378 18.5408 6.45918 23.4362 12.5 23.4362C18.5408 23.4362 23.4388 18.5408 23.4362 12.5C23.4362 6.45918 18.5408 1.56378 12.5 1.56378C6.45918 1.56378 1.56378 6.45918 1.56378 12.5Z" fill="#666666"/>
<path fill-rule="evenodd" clip-rule="evenodd" d="M12.5 23.4362C6.45918 23.4362 1.56378 18.5408 1.56378 12.5C1.56378 6.45918 6.45918 1.56378 12.5 1.56378C18.5408 1.56378 23.4362 6.45918 23.4362 12.5C23.4388 18.5408 18.5408 23.4362 12.5 23.4362ZM12.1466 11.1058C12.3418 11.301 12.6583 11.301 12.8536 11.1059L15.7944 8.16708C15.9897 7.97194 16.3062 7.97199 16.5014 8.16721L16.8352 8.50104C17.0305 8.6963 17.0305 9.01288 16.8352 9.20814L13.8969 12.1464C13.7017 12.3417 13.7017 12.6583 13.8969 12.8536L16.8357 15.7923C17.0307 15.9874 17.0309 16.3036 16.8361 16.499L16.5015 16.8344C16.3063 17.03 15.9894 17.0302 15.794 16.8348L12.8537 13.8945C12.6584 13.6992 12.3417 13.6992 12.1464 13.8946L9.20814 16.835C9.0129 17.0304 8.69622 17.0304 8.50091 16.8351L8.1649 16.4991C7.96959 16.3038 7.96965 15.9871 8.16503 15.7919L11.1051 12.8538C11.3006 12.6585 11.3006 12.3416 11.105 12.1463L8.16527 9.2107C7.96978 9.01547 7.96967 8.6987 8.16503 8.50334L8.50104 8.16733C8.6963 7.97207 9.01288 7.97207 9.20815 8.16733L12.1466 11.1058Z" stroke="#E12237"/>
<path fill-rule="evenodd" clip-rule="evenodd" d="M0 12.5C0 5.59694 5.59694 0 12.5 0C19.4031 0 25 5.59694 25 12.5C25 19.4031 19.4031 25 12.5 25C5.59694 25 0 19.4031 0 12.5ZM1.56378 12.5C1.56378 18.5408 6.45918 23.4362 12.5 23.4362C18.5408 23.4362 23.4388 18.5408 23.4362 12.5C23.4362 6.45918 18.5408 1.56378 12.5 1.56378C6.45918 1.56378 1.56378 6.45918 1.56378 12.5Z" stroke="#E12237"/>
</g>
</g>
</g>
</g>
</svg>
