<svg width="72" height="58" viewBox="0 0 72 58" fill="none" xmlns="http://www.w3.org/2000/svg">
<path id="Vector" d="M56.5 0.169678C63.5 0.169678 64 0.169679 64 0.169679C63.9197 0.169679 71.5 0.169676 71.5 0.169676L64 0.169679L56.5 0.169678ZM71.5 0.169676C66 1.16968 53 7.16968 48.7707 13.8111C46.5 17.3769 46.8713 16.9964 45.8425 19.2757C45.02 21.0976 43.5573 24.5872 42.4015 27.0666C39.6448 32.9801 35.8899 39.5144 29.2253 45.0786C22.6854 50.5388 13.7904 54.6958 1.08765 57.0635L0.870535 43.0742C12.5744 40.8927 19.6902 37.2475 24.2867 33.4099C28.7585 29.6763 31.2656 25.4173 33.4183 20.7996C34.7171 18.0135 35.3707 16.3031 36.7667 13.2102C37.9565 10.5746 39.3747 7.69368 41.2402 5.00593C45.2464 -0.766366 45.6888 -0.0269222 56.5 0.169678L64 0.169679L71.5 0.169676Z" fill="url(#paint0_linear_128_695)"/>
<defs>
<linearGradient id="paint0_linear_128_695" x1="-3.45622" y1="31.3908" x2="67.4416" y2="18.8424" gradientUnits="userSpaceOnUse">
<stop offset="1" stop-color="#E38744" stop-opacity="0.44"/>
</linearGradient>
</defs>
</svg>
