<svg width="7" height="9" viewBox="0 0 7 9" fill="none" xmlns="http://www.w3.org/2000/svg">
<path id="Vector" d="M6.96346 4.06519C6.98581 4.09702 6.99988 4.13621 6.99988 4.17866C6.99988 4.26356 6.94608 4.33539 6.86994 4.36315C6.56207 4.57784 4.91512 5.79825 3.68115 8.04233C3.65715 8.10192 3.60584 8.15009 3.54211 8.16396C3.52556 8.16804 3.50901 8.16968 3.49163 8.16968C3.42376 8.16968 3.36086 8.13866 3.3261 8.0807C3.317 8.06682 3.30955 8.05213 3.30376 8.0358C3.14403 7.72968 2.08303 5.79253 0.120757 4.35172C0.0495824 4.32151 -7.43233e-05 4.25213 -7.43233e-05 4.17049C-7.43233e-05 4.16886 -7.43233e-05 4.16723 -7.43233e-05 4.16641C-0.000901937 4.12886 0.00902941 4.09131 0.0297197 4.05866C0.0528929 4.02111 0.0884803 3.99335 0.129033 3.97784C0.383938 3.80233 2.04992 2.59825 3.3079 0.322331C3.32693 0.234984 3.40721 0.169678 3.50156 0.169678C3.54045 0.169678 3.57687 0.181106 3.60749 0.199882C3.6497 0.223555 3.68198 0.261923 3.6977 0.308453C3.82019 0.546004 4.88036 2.53131 6.89146 4.00151C6.92125 4.01702 6.94608 4.03907 6.96346 4.06519Z" fill="white"/>
</svg>
