<svg width="6" height="11" viewBox="0 0 6 11" fill="none" xmlns="http://www.w3.org/2000/svg">
<g id="Group">
<path id="Vector" d="M4.55536 4.55536C5.05827 4.05245 5.33667 3.38116 5.33667 2.66833C5.33667 1.95551 5.05827 1.28534 4.55536 0.781304C4.05021 0.278396 3.38116 0 2.66833 0C1.95551 0 1.28646 0.278396 0.781304 0.781304C0.278396 1.28421 0 1.95551 0 2.66833C0 3.38116 0.278396 4.05021 0.781304 4.55536C1.10797 4.88203 1.50311 5.11328 1.9353 5.23451V7.46954V9.36667V10.267C1.9353 10.6722 2.26421 11 2.66833 11C3.07246 11 3.40137 10.6711 3.40137 10.267V10.1008H3.82121C4.22645 10.1008 4.55424 9.77192 4.55424 9.36779C4.55424 8.96255 4.22533 8.63476 3.82121 8.63476H3.40137V8.20369H3.82121C4.22645 8.20369 4.55424 7.87478 4.55424 7.47066C4.55424 7.06654 4.22533 6.73763 3.82121 6.73763H3.40137V5.23451C3.83355 5.11328 4.2287 4.88203 4.55536 4.55536ZM1.46719 2.66833C1.46719 2.0049 2.00602 1.46719 2.66833 1.46719C3.33177 1.46719 3.86948 2.00602 3.86948 2.66833C3.86948 3.33177 3.33065 3.86948 2.66833 3.86948C2.0049 3.8706 1.46719 3.33065 1.46719 2.66833Z" fill="#9A9A9A"/>
</g>
</svg>
