<svg width="152" height="63" viewBox="0 0 152 63" fill="none" xmlns="http://www.w3.org/2000/svg">
<path d="M56.5081 46.5054V38.2049C56.5081 37.6342 56.4275 37.1441 56.2662 36.7346C56.1049 36.3252 55.8505 36.0088 55.5031 35.7855C55.1557 35.5498 54.6904 35.4319 54.1073 35.4319C53.6358 35.4319 53.2326 35.5125 52.8976 35.6738C52.5626 35.8351 52.3083 36.077 52.1345 36.3997C51.9608 36.7222 51.874 37.1316 51.874 37.628H45.6021C45.6021 36.6974 45.8069 35.8351 46.2163 35.041C46.6381 34.2346 47.2337 33.5336 48.0029 32.938C48.7846 32.3425 49.7151 31.8834 50.7946 31.5608C51.8864 31.2258 53.1023 31.0583 54.4423 31.0583C56.0429 31.0583 57.4697 31.3251 58.7228 31.8586C59.9883 32.3921 60.9871 33.1923 61.719 34.2594C62.451 35.314 62.817 36.6416 62.817 38.2421V46.4867C62.817 47.8019 62.8916 48.8007 63.0407 49.4831C63.1892 50.1531 63.4005 50.7424 63.6735 51.2511V51.5675H57.3828C57.0851 50.9471 56.8617 50.1903 56.7128 49.297C56.5764 48.3912 56.5081 47.4607 56.5081 46.5054ZM57.2712 39.2657L57.3084 42.6157H54.5353C53.9522 42.6157 53.4559 42.6963 53.0465 42.8576C52.6494 43.0189 52.3269 43.2422 52.0787 43.5276C51.843 43.8006 51.6693 44.1107 51.5576 44.4582C51.4583 44.8056 51.4087 45.1716 51.4087 45.5562C51.4087 45.9284 51.4956 46.2634 51.6693 46.5612C51.8554 46.8466 52.1036 47.0699 52.4137 47.2312C52.7239 47.3925 53.0713 47.4731 53.4559 47.4731C54.1507 47.4731 54.7401 47.3428 55.2239 47.0823C55.7203 46.8093 56.0987 46.4805 56.3592 46.0959C56.6198 45.7113 56.7501 45.3515 56.7501 45.0165L58.1272 47.5848C57.8791 48.081 57.5937 48.5835 57.2712 49.0923C56.961 49.6009 56.5701 50.0724 56.0987 50.5067C55.6396 50.9285 55.0751 51.2759 54.4051 51.5489C53.7351 51.8094 52.9224 51.9398 51.9671 51.9398C50.7263 51.9398 49.5849 51.6854 48.5426 51.1767C47.5129 50.668 46.6878 49.9608 46.0674 49.0551C45.447 48.1369 45.1368 47.0823 45.1368 45.8912C45.1368 44.849 45.323 43.9184 45.6952 43.0996C46.0798 42.2807 46.6567 41.5859 47.426 41.0151C48.1952 40.4444 49.1754 40.0102 50.3665 39.7124C51.5576 39.4146 52.9596 39.2657 54.5726 39.2657H57.2712ZM72.6249 36.4183V51.5675H66.3533V31.4305H72.2158L72.6249 36.4183ZM78.5804 31.2817L78.4689 37.1069C78.2206 37.082 77.8859 37.051 77.4639 37.0138C77.0424 36.9766 76.6887 36.9579 76.4034 36.9579C75.6713 36.9579 75.0385 37.0448 74.5049 37.2185C73.9836 37.3798 73.5492 37.628 73.2023 37.9629C72.8671 38.2855 72.6188 38.695 72.4579 39.1913C72.3088 39.6875 72.2404 40.2645 72.2528 40.9221L71.1177 40.1777C71.1177 38.8252 71.2477 37.5969 71.5084 36.4927C71.7814 35.3761 72.1659 34.4145 72.6625 33.608C73.1585 32.7891 73.7605 32.1626 74.4674 31.7283C75.1747 31.2817 75.969 31.0583 76.8495 31.0583C77.1601 31.0583 77.4639 31.077 77.7615 31.1142C78.072 31.1514 78.345 31.2072 78.5804 31.2817ZM92.2783 31.4305V35.7855H80.1437V31.4305H92.2783ZM82.6935 26.4242H88.9656V44.9979C88.9656 45.5314 89.0273 45.9471 89.1517 46.2448C89.2756 46.5302 89.4864 46.7349 89.7846 46.859C90.0945 46.9706 90.5037 47.0264 91.0127 47.0264C91.3725 47.0264 91.6701 47.0203 91.9061 47.0078C92.1415 46.983 92.3652 46.952 92.5759 46.9148V51.4C92.0423 51.5737 91.484 51.704 90.9011 51.7908C90.3176 51.8901 89.6977 51.9398 89.0402 51.9398C87.7 51.9398 86.5521 51.7288 85.597 51.307C84.6542 50.8851 83.9345 50.2213 83.4378 49.3156C82.9418 48.4098 82.6935 47.2312 82.6935 45.7795V26.4242ZM93.4318 41.7037V41.3129C93.4318 39.8365 93.6432 38.4778 94.0647 37.2371C94.4867 35.984 95.1072 34.8984 95.9261 33.9802C96.7451 33.0621 97.7562 32.3487 98.9596 31.84C100.163 31.3189 101.553 31.0583 103.128 31.0583C104.717 31.0583 106.112 31.3189 107.316 31.84C108.532 32.3487 109.549 33.0621 110.368 33.9802C111.187 34.8984 111.807 35.984 112.229 37.2371C112.651 38.4778 112.862 39.8365 112.862 41.3129V41.7037C112.862 43.1678 112.651 44.5264 112.229 45.7795C111.807 47.0203 111.187 48.1059 110.368 49.0364C109.549 49.9546 108.538 50.668 107.334 51.1767C106.131 51.6854 104.741 51.9398 103.166 51.9398C101.59 51.9398 100.194 51.6854 98.9781 51.1767C97.7624 50.668 96.7451 49.9546 95.9261 49.0364C95.1072 48.1059 94.4867 47.0203 94.0647 45.7795C93.6432 44.5264 93.4318 43.1678 93.4318 41.7037ZM99.704 41.3129V41.7037C99.704 42.4606 99.7601 43.1678 99.8716 43.8254C99.9832 44.483 100.169 45.0599 100.43 45.5562C100.691 46.0401 101.044 46.4185 101.49 46.6915C101.937 46.9644 102.495 47.1009 103.166 47.1009C103.823 47.1009 104.369 46.9644 104.804 46.6915C105.25 46.4185 105.603 46.0401 105.864 45.5562C106.125 45.0599 106.311 44.483 106.422 43.8254C106.534 43.1678 106.59 42.4606 106.59 41.7037V41.3129C106.59 40.5809 106.534 39.8923 106.422 39.2471C106.311 38.5896 106.125 38.0126 105.864 37.5163C105.603 37.0076 105.25 36.6106 104.804 36.3252C104.357 36.0398 103.799 35.8972 103.128 35.8972C102.471 35.8972 101.919 36.0398 101.472 36.3252C101.037 36.6106 100.691 37.0076 100.43 37.5163C100.169 38.0126 99.9832 38.5896 99.8716 39.2471C99.7601 39.8923 99.704 40.5809 99.704 41.3129ZM114.872 41.7037V41.3129C114.872 39.8365 115.083 38.4778 115.504 37.2371C115.926 35.984 116.547 34.8984 117.366 33.9802C118.185 33.0621 119.196 32.3487 120.399 31.84C121.603 31.3189 122.992 31.0583 124.568 31.0583C126.156 31.0583 127.552 31.3189 128.756 31.84C129.971 32.3487 130.989 33.0621 131.808 33.9802C132.626 34.8984 133.247 35.984 133.669 37.2371C134.091 38.4778 134.302 39.8365 134.302 41.3129V41.7037C134.302 43.1678 134.091 44.5264 133.669 45.7795C133.247 47.0203 132.626 48.1059 131.808 49.0364C130.989 49.9546 129.977 50.668 128.774 51.1767C127.571 51.6854 126.181 51.9398 124.605 51.9398C123.029 51.9398 121.634 51.6854 120.418 51.1767C119.202 50.668 118.185 49.9546 117.366 49.0364C116.547 48.1059 115.926 47.0203 115.504 45.7795C115.083 44.5264 114.872 43.1678 114.872 41.7037ZM121.144 41.3129V41.7037C121.144 42.4606 121.2 43.1678 121.311 43.8254C121.423 44.483 121.609 45.0599 121.87 45.5562C122.13 46.0401 122.484 46.4185 122.93 46.6915C123.377 46.9644 123.935 47.1009 124.605 47.1009C125.263 47.1009 125.809 46.9644 126.243 46.6915C126.689 46.4185 127.043 46.0401 127.304 45.5562C127.564 45.0599 127.751 44.483 127.862 43.8254C127.974 43.1678 128.03 42.4606 128.03 41.7037V41.3129C128.03 40.5809 127.974 39.8923 127.862 39.2471C127.751 38.5896 127.564 38.0126 127.304 37.5163C127.043 37.0076 126.689 36.6106 126.243 36.3252C125.797 36.0398 125.238 35.8972 124.568 35.8972C123.91 35.8972 123.358 36.0398 122.912 36.3252C122.477 36.6106 122.13 37.0076 121.87 37.5163C121.609 38.0126 121.423 38.5896 121.311 39.2471C121.2 39.8923 121.144 40.5809 121.144 41.3129ZM143.719 22.9812V51.5675H137.428V22.9812H143.719Z" fill="#4B4B4B"/>
<path d="M34.6569 45.6741C34.6569 48.1152 36.6455 50.0941 39.0987 50.0941C41.5518 50.0941 43.5405 48.1152 43.5405 45.6741H34.6569ZM43.5405 45.6741V1.47339L34.6569 2.52235V45.6741H43.5405Z" fill="#4B4B4B"/>
<path d="M44.0229 48.0273C44.0302 50.1572 41.8523 51.5244 39.1587 51.0811C36.4649 50.6377 34.2754 48.5516 34.2682 46.4217L44.0229 48.0273ZM34.2682 46.4217C34.2544 42.3643 32.9191 40.3008 31.4082 38.8005C30.5318 37.9302 29.427 37.0877 27.9687 36.0918C26.803 35.2956 24.5565 33.849 22.9746 32.7401C19.2018 30.0954 15.1202 26.6801 12.0712 21.3609C9.07926 16.1412 7.28332 9.44428 7.20032 0.319702L16.9548 1.89047C17.0313 10.2975 18.6903 15.6943 20.7931 19.3629C22.839 22.932 25.492 25.1995 28.4381 27.2648C30.2156 28.5108 31.3246 29.1758 33.3035 30.5272C34.9897 31.6789 36.8185 33.0197 38.4579 34.6477C41.9787 38.144 44.0036 42.3365 44.0229 48.0273L34.2682 46.4217Z" fill="#E38744"/>
<path d="M44.0229 48.0273C44.0302 50.1572 41.8523 51.5244 39.1587 51.0811C36.4649 50.6377 34.2754 48.5516 34.2682 46.4217L44.0229 48.0273ZM34.2682 46.4217C34.2544 42.3643 32.9191 40.3008 31.4082 38.8005C30.5318 37.9302 29.427 37.0877 27.9687 36.0918C26.803 35.2956 24.5565 33.849 22.9746 32.7401C19.2018 30.0954 15.1202 26.6801 12.0712 21.3609C9.07926 16.1412 7.28332 9.44428 7.20032 0.319702L16.9548 1.89047C17.0313 10.2975 18.6903 15.6943 20.7931 19.3629C22.839 22.932 25.492 25.1995 28.4381 27.2648C30.2156 28.5108 31.3246 29.1758 33.3035 30.5272C34.9897 31.6789 36.8185 33.0197 38.4579 34.6477C41.9787 38.144 44.0036 42.3365 44.0229 48.0273L34.2682 46.4217Z" fill="url(#paint0_linear_38_533)" fill-opacity="0.1"/>
<path d="M6.89104 45.6361C6.86998 48.0772 8.84152 50.073 11.2946 50.094C13.7476 50.1149 15.7533 48.1531 15.7744 45.712L6.89104 45.6361ZM7.26579 2.17212L6.89104 45.6361L15.7744 45.712L16.1491 2.24797L7.26579 2.17212Z" fill="#E38744"/>
<path d="M6.89104 45.6361C6.86998 48.0772 8.84152 50.073 11.2946 50.094C13.7476 50.1149 15.7533 48.1531 15.7744 45.712L6.89104 45.6361ZM7.26579 2.17212L6.89104 45.6361L15.7744 45.712L16.1491 2.24797L7.26579 2.17212Z" fill="url(#paint1_linear_38_533)" fill-opacity="0.1"/>
<path d="M23.5523 47.8841C26.0054 47.8841 27.9941 45.9052 27.9941 43.464C27.9941 41.0229 26.0054 39.0439 23.5523 39.0439C21.0991 39.0439 19.1105 41.0229 19.1105 43.464C19.1105 45.9052 21.0991 47.8841 23.5523 47.8841Z" fill="#4B4B4B"/>
<g clip-path="url(#clip0_38_533)">
<path d="M2.98481 60.3874V58.2531C2.98481 58.0897 2.9516 57.9479 2.88519 57.8278C2.82133 57.7052 2.72426 57.6107 2.59398 57.5443C2.46371 57.4779 2.30278 57.4447 2.11119 57.4447C1.93238 57.4447 1.77529 57.4753 1.6399 57.5366C1.50707 57.5979 1.40234 57.6784 1.3257 57.778C1.25162 57.8776 1.21459 57.9849 1.21459 58.0999H0.505731C0.505731 57.9517 0.544047 57.8048 0.620679 57.6592C0.697313 57.5136 0.807152 57.3821 0.950201 57.2646C1.09581 57.1445 1.2695 57.05 1.47131 56.981C1.67566 56.9095 1.90301 56.8738 2.15334 56.8738C2.45477 56.8738 2.72043 56.9248 2.95032 57.027C3.18278 57.1292 3.36414 57.2837 3.49442 57.4906C3.62725 57.695 3.69366 57.9517 3.69366 58.2608V60.192C3.69366 60.3299 3.70516 60.4768 3.72815 60.6326C3.75369 60.7884 3.79073 60.9225 3.83927 61.0349V61.0962H3.09976C3.064 61.0145 3.0359 60.9059 3.01546 60.7705C2.99502 60.6326 2.98481 60.5049 2.98481 60.3874ZM3.10742 58.5827L3.11509 59.0808H2.39857C2.19677 59.0808 2.01668 59.0974 1.8583 59.1306C1.69993 59.1612 1.5671 59.2085 1.45981 59.2724C1.35253 59.3362 1.27078 59.4167 1.21459 59.5138C1.15839 59.6083 1.13029 59.7194 1.13029 59.8471C1.13029 59.9774 1.15967 60.0962 1.21842 60.2035C1.27717 60.3107 1.3653 60.3963 1.4828 60.4602C1.60286 60.5215 1.74974 60.5521 1.92344 60.5521C2.14057 60.5521 2.33215 60.5062 2.49819 60.4142C2.66423 60.3222 2.79578 60.2098 2.89285 60.077C2.99247 59.9442 3.04612 59.8152 3.05378 59.69L3.35648 60.031C3.3386 60.1383 3.29006 60.2571 3.21088 60.3874C3.13169 60.5177 3.02568 60.6428 2.89285 60.7629C2.76257 60.8804 2.60676 60.9787 2.42539 61.0579C2.24658 61.1346 2.04478 61.1729 1.81999 61.1729C1.539 61.1729 1.2925 61.1179 1.08048 61.0081C0.871017 60.8983 0.707531 60.7514 0.590024 60.5674C0.475077 60.381 0.417603 60.1728 0.417603 59.9429C0.417603 59.7207 0.461028 59.5253 0.547879 59.3567C0.634731 59.1855 0.759894 59.0437 0.92338 58.9314C1.08687 58.8164 1.28356 58.7295 1.51346 58.6708C1.74335 58.612 2.00008 58.5827 2.28362 58.5827H3.10742ZM7.41804 62.6902V57.7474L7.47936 56.9504H8.13074V62.6902H7.41804ZM4.63242 59.0693V58.9888C4.63242 58.6721 4.66946 58.3847 4.74354 58.1267C4.81761 57.8661 4.92618 57.6426 5.06923 57.4562C5.21227 57.2697 5.3847 57.1266 5.5865 57.027C5.79087 56.9248 6.02331 56.8738 6.28384 56.8738C6.54442 56.8738 6.77306 56.9197 6.96974 57.0117C7.16895 57.1011 7.33755 57.2327 7.4755 57.4064C7.61602 57.5775 7.72711 57.7844 7.80884 58.0271C7.89061 58.2698 7.94678 58.5444 7.97744 58.8509V59.2034C7.94936 59.5074 7.89443 59.7807 7.8127 60.0234C7.73092 60.266 7.61983 60.4729 7.47936 60.6441C7.34142 60.8152 7.17153 60.9468 6.96974 61.0388C6.77048 61.1282 6.53932 61.1729 6.27622 61.1729C6.02073 61.1729 5.79087 61.1205 5.5865 61.0157C5.3847 60.911 5.21227 60.7642 5.06923 60.5751C4.92873 60.3861 4.82017 60.1639 4.74354 59.9084C4.66946 59.6504 4.63242 59.3707 4.63242 59.0693ZM5.3451 58.9888V59.0693C5.3451 59.2762 5.36682 59.4716 5.41024 59.6555C5.45367 59.8369 5.52009 59.9978 5.60948 60.1383C5.70146 60.2788 5.81643 60.3899 5.95431 60.4717C6.09483 60.5509 6.26086 60.5905 6.45244 60.5905C6.68747 60.5905 6.88286 60.5394 7.03869 60.4372C7.19709 60.335 7.32354 60.2009 7.41804 60.0349C7.51255 59.8663 7.58536 59.6862 7.63642 59.4946V58.5712C7.60834 58.4307 7.56361 58.294 7.50235 58.1612C7.44355 58.0284 7.36692 57.9096 7.27242 57.8048C7.17792 57.6976 7.06296 57.6133 6.92759 57.552C6.79475 57.4881 6.63893 57.4562 6.46012 57.4562C6.26596 57.4562 6.09865 57.497 5.95818 57.5788C5.81766 57.6605 5.70146 57.7729 5.60948 57.916C5.52009 58.0565 5.45367 58.2187 5.41024 58.4026C5.36682 58.5865 5.3451 58.7819 5.3451 58.9888ZM11.8053 60.1383V56.9504H12.518V61.0962H11.8397L11.8053 60.1383ZM11.9394 59.2647L12.2344 59.257C12.2344 59.5329 12.205 59.7884 12.1463 60.0234C12.0901 60.2558 11.9981 60.4576 11.8704 60.6288C11.7427 60.7999 11.5754 60.934 11.3684 61.0311C11.1616 61.1256 10.9099 61.1729 10.6136 61.1729C10.4118 61.1729 10.2266 61.1435 10.058 61.0847C9.89199 61.026 9.74895 60.9353 9.62889 60.8127C9.50882 60.6901 9.41561 60.5304 9.34919 60.3337C9.28535 60.137 9.2534 59.9008 9.2534 59.6249V56.9504H9.96222V59.6325C9.96222 59.819 9.98268 59.9736 10.0235 60.0962C10.067 60.2162 10.1244 60.312 10.196 60.3835C10.2701 60.4525 10.3518 60.501 10.4412 60.5291C10.5332 60.5572 10.6277 60.5713 10.7248 60.5713C11.0261 60.5713 11.265 60.5138 11.4413 60.3989C11.6175 60.2814 11.7439 60.1243 11.8206 59.9276C11.8998 59.7283 11.9394 59.5074 11.9394 59.2647ZM14.3687 56.9504V61.0962H13.656V56.9504H14.3687ZM13.6023 55.8507C13.6023 55.7357 13.6368 55.6387 13.7057 55.5595C13.7773 55.4803 13.882 55.4407 14.02 55.4407C14.1553 55.4407 14.2588 55.4803 14.3303 55.5595C14.4044 55.6387 14.4414 55.7357 14.4414 55.8507C14.4414 55.9605 14.4044 56.0551 14.3303 56.1342C14.2588 56.2109 14.1553 56.2492 14.02 56.2492C13.882 56.2492 13.7773 56.2109 13.7057 56.1342C13.6368 56.0551 13.6023 55.9605 13.6023 55.8507ZM19.867 59.9966C19.867 59.8944 19.8441 59.7999 19.7981 59.713C19.7547 59.6236 19.664 59.5431 19.526 59.4716C19.3907 59.3975 19.1863 59.3337 18.913 59.28C18.6831 59.2315 18.4749 59.174 18.2884 59.1076C18.1045 59.0412 17.9474 58.9607 17.8171 58.8662C17.6894 58.7717 17.5911 58.6606 17.5221 58.5329C17.4531 58.4051 17.4187 58.2557 17.4187 58.0846C17.4187 57.9211 17.4544 57.7665 17.5259 57.6209C17.6 57.4753 17.7035 57.3463 17.8363 57.2339C17.9717 57.1215 18.1339 57.0334 18.3229 56.9695C18.5119 56.9057 18.7227 56.8738 18.9551 56.8738C19.2872 56.8738 19.5708 56.9325 19.8058 57.05C20.0407 57.1675 20.2208 57.3246 20.346 57.5213C20.4712 57.7154 20.5338 57.9313 20.5338 58.1688H19.8249C19.8249 58.0539 19.7904 57.9428 19.7215 57.8355C19.6551 57.7257 19.5567 57.635 19.4264 57.5635C19.2987 57.4919 19.1416 57.4562 18.9551 57.4562C18.7585 57.4562 18.5988 57.4868 18.4762 57.5481C18.3561 57.6069 18.268 57.6822 18.2118 57.7742C18.1581 57.8661 18.1314 57.9632 18.1314 58.0654C18.1314 58.142 18.1441 58.211 18.1696 58.2723C18.1977 58.3311 18.2463 58.386 18.3153 58.4371C18.3842 58.4856 18.4813 58.5316 18.6064 58.575C18.7316 58.6184 18.8913 58.6619 19.0854 58.7053C19.4251 58.7819 19.7048 58.8739 19.9246 58.9812C20.1442 59.0884 20.3077 59.22 20.415 59.3758C20.5223 59.5316 20.5759 59.7207 20.5759 59.9429C20.5759 60.1243 20.5376 60.2903 20.461 60.441C20.3869 60.5917 20.2784 60.722 20.1353 60.8318C19.9948 60.9391 19.8262 61.0234 19.6295 61.0847C19.4354 61.1435 19.217 61.1729 18.9743 61.1729C18.609 61.1729 18.2999 61.1077 18.0471 60.9775C17.7941 60.8472 17.6026 60.6786 17.4723 60.4717C17.342 60.2648 17.2768 60.0464 17.2768 59.8165H17.9895C17.9998 60.0106 18.056 60.1651 18.1581 60.2801C18.2603 60.3925 18.3855 60.4729 18.5336 60.5215C18.6818 60.5674 18.8287 60.5905 18.9743 60.5905C19.1684 60.5905 19.3306 60.5649 19.4609 60.5138C19.5937 60.4627 19.6946 60.3925 19.7636 60.3031C19.8326 60.2137 19.867 60.1115 19.867 59.9966ZM24.0436 60.1383V56.9504H24.7563V61.0962H24.078L24.0436 60.1383ZM24.1777 59.2647L24.4727 59.257C24.4727 59.5329 24.4433 59.7884 24.3846 60.0234C24.3284 60.2558 24.2364 60.4576 24.1087 60.6288C23.981 60.7999 23.8137 60.934 23.6068 61.0311C23.3999 61.1256 23.1483 61.1729 22.8519 61.1729C22.6501 61.1729 22.4649 61.1435 22.2963 61.0847C22.1303 61.026 21.9873 60.9353 21.8672 60.8127C21.7471 60.6901 21.6539 60.5304 21.5875 60.3337C21.5236 60.137 21.4917 59.9008 21.4917 59.6249V56.9504H22.2005V59.6325C22.2005 59.819 22.221 59.9736 22.2619 60.0962C22.3053 60.2162 22.3627 60.312 22.4343 60.3835C22.5084 60.4525 22.5901 60.501 22.6795 60.5291C22.7715 60.5572 22.866 60.5713 22.9631 60.5713C23.2644 60.5713 23.5033 60.5138 23.6796 60.3989C23.8558 60.2814 23.9822 60.1243 24.0589 59.9276C24.1381 59.7283 24.1777 59.5074 24.1777 59.2647ZM28.2814 60.3874V58.2531C28.2814 58.0897 28.2482 57.9479 28.1817 57.8278C28.1179 57.7052 28.0208 57.6107 27.8906 57.5443C27.7603 57.4779 27.5994 57.4447 27.4078 57.4447C27.229 57.4447 27.0719 57.4753 26.9364 57.5366C26.8037 57.5979 26.6989 57.6784 26.6223 57.778C26.5482 57.8776 26.5112 57.9849 26.5112 58.0999H25.8023C25.8023 57.9517 25.8406 57.8048 25.9173 57.6592C25.9939 57.5136 26.1037 57.3821 26.2468 57.2646C26.3923 57.1445 26.5661 57.05 26.7679 56.981C26.9722 56.9095 27.1995 56.8738 27.4499 56.8738C27.7513 56.8738 28.017 56.9248 28.2469 57.027C28.4793 57.1292 28.6607 57.2837 28.791 57.4906C28.9238 57.695 28.9902 57.9517 28.9902 58.2608V60.192C28.9902 60.3299 29.0017 60.4768 29.0247 60.6326C29.0503 60.7884 29.0873 60.9225 29.1358 61.0349V61.0962H28.3963C28.3605 61.0145 28.3325 60.9059 28.312 60.7705C28.2916 60.6326 28.2814 60.5049 28.2814 60.3874ZM28.404 58.5827L28.4117 59.0808H27.6952C27.4933 59.0808 27.3132 59.0974 27.1549 59.1306C26.9965 59.1612 26.8637 59.2085 26.7564 59.2724C26.6491 59.3362 26.5673 59.4167 26.5112 59.5138C26.455 59.6083 26.4269 59.7194 26.4269 59.8471C26.4269 59.9774 26.4562 60.0962 26.515 60.2035C26.5737 60.3107 26.6618 60.3963 26.7794 60.4602C26.8994 60.5215 27.0463 60.5521 27.22 60.5521C27.4371 60.5521 27.6287 60.5062 27.7948 60.4142C27.9608 60.3222 28.0923 60.2098 28.1894 60.077C28.289 59.9442 28.3427 59.8152 28.3503 59.69L28.653 60.031C28.6351 60.1383 28.5867 60.2571 28.5075 60.3874C28.4283 60.5177 28.3223 60.6428 28.1894 60.7629C28.0592 60.8804 27.9033 60.9787 27.7219 61.0579C27.5431 61.1346 27.3414 61.1729 27.1165 61.1729C26.8355 61.1729 26.589 61.1179 26.377 61.0081C26.1676 60.8983 26.0041 60.7514 25.8866 60.5674C25.7716 60.381 25.7142 60.1728 25.7142 59.9429C25.7142 59.7207 25.7576 59.5253 25.8444 59.3567C25.9313 59.1855 26.0565 59.0437 26.2199 58.9314C26.3834 58.8164 26.5801 58.7295 26.81 58.6708C27.0399 58.612 27.2966 58.5827 27.5802 58.5827H28.404ZM33.7108 60.5905C33.8794 60.5905 34.0353 60.556 34.1783 60.487C34.3214 60.418 34.4388 60.3235 34.5308 60.2035C34.6227 60.0808 34.6751 59.9416 34.6879 59.7858H35.3623C35.3495 60.031 35.2665 60.2597 35.1132 60.4717C34.9625 60.6811 34.7645 60.851 34.5193 60.9813C34.2741 61.109 34.0046 61.1729 33.7108 61.1729C33.3992 61.1729 33.1271 61.1179 32.8947 61.0081C32.6648 60.8983 32.4732 60.7475 32.3199 60.556C32.1692 60.3644 32.0556 60.1447 31.9789 59.8969C31.9049 59.6466 31.8678 59.3822 31.8678 59.1038V58.9428C31.8678 58.6644 31.9049 58.4013 31.9789 58.1535C32.0556 57.9032 32.1692 57.6822 32.3199 57.4906C32.4732 57.2991 32.6648 57.1484 32.8947 57.0385C33.1271 56.9287 33.3992 56.8738 33.7108 56.8738C34.0353 56.8738 34.3188 56.9402 34.5615 57.073C34.8041 57.2033 34.9944 57.3821 35.1324 57.6094C35.2729 57.8342 35.3495 58.0897 35.3623 58.3758H34.6879C34.6751 58.2046 34.6266 58.0501 34.5423 57.9121C34.4605 57.7742 34.3481 57.6644 34.2051 57.5826C34.0646 57.4983 33.8998 57.4562 33.7108 57.4562C33.4937 57.4562 33.3111 57.4996 33.1629 57.5864C33.0173 57.6707 32.9011 57.7857 32.8142 57.9313C32.7299 58.0743 32.6686 58.234 32.6303 58.4102C32.5945 58.5839 32.5766 58.7615 32.5766 58.9428V59.1038C32.5766 59.2851 32.5945 59.4639 32.6303 59.6402C32.666 59.8165 32.7261 59.9761 32.8104 60.1192C32.8972 60.2622 33.0134 60.3772 33.1591 60.464C33.3072 60.5483 33.4912 60.5905 33.7108 60.5905ZM36.8681 57.6018V61.0962H36.1592V56.9504H36.8489L36.8681 57.6018ZM38.1632 56.9274L38.1594 57.5864C38.1006 57.5737 38.0444 57.566 37.9908 57.5635C37.9397 57.5583 37.881 57.5558 37.8145 57.5558C37.651 57.5558 37.5067 57.5813 37.3815 57.6324C37.2564 57.6835 37.1504 57.755 37.0635 57.847C36.9767 57.939 36.9077 58.0488 36.8566 58.1765C36.8081 58.3017 36.7761 58.4396 36.7608 58.5903L36.5616 58.7053C36.5616 58.4549 36.5858 58.2199 36.6344 58.0003C36.6854 57.7806 36.7633 57.5864 36.8681 57.4178C36.9728 57.2467 37.1057 57.1139 37.2666 57.0194C37.4301 56.9223 37.6242 56.8738 37.849 56.8738C37.9001 56.8738 37.9589 56.8801 38.0252 56.8929C38.0917 56.9031 38.1377 56.9146 38.1632 56.9274ZM39.5886 56.9504V61.0962H38.8759V56.9504H39.5886ZM38.8222 55.8507C38.8222 55.7357 38.8567 55.6387 38.9257 55.5595C38.9972 55.4803 39.1019 55.4407 39.2399 55.4407C39.3753 55.4407 39.4787 55.4803 39.5502 55.5595C39.6243 55.6387 39.6614 55.7357 39.6614 55.8507C39.6614 55.9605 39.6243 56.0551 39.5502 56.1342C39.4787 56.2109 39.3753 56.2492 39.2399 56.2492C39.1019 56.2492 38.9972 56.2109 38.9257 56.1342C38.8567 56.0551 38.8222 55.9605 38.8222 55.8507ZM43.1712 60.3874V58.2531C43.1712 58.0897 43.138 57.9479 43.0716 57.8278C43.0077 57.7052 42.9106 57.6107 42.7803 57.5443C42.6501 57.4779 42.4891 57.4447 42.2975 57.4447C42.1187 57.4447 41.9616 57.4753 41.8263 57.5366C41.6934 57.5979 41.5887 57.6784 41.512 57.778C41.438 57.8776 41.4009 57.9849 41.4009 58.0999H40.6921C40.6921 57.9517 40.7304 57.8048 40.807 57.6592C40.8837 57.5136 40.9935 57.3821 41.1366 57.2646C41.2822 57.1445 41.4559 57.05 41.6577 56.981C41.862 56.9095 42.0894 56.8738 42.3397 56.8738C42.6411 56.8738 42.9068 56.9248 43.1367 57.027C43.3691 57.1292 43.5505 57.2837 43.6808 57.4906C43.8136 57.695 43.8801 57.9517 43.8801 58.2608V60.192C43.8801 60.3299 43.8915 60.4768 43.9145 60.6326C43.9401 60.7884 43.9771 60.9225 44.0256 61.0349V61.0962H43.2861C43.2504 61.0145 43.2223 60.9059 43.2018 60.7705C43.1814 60.6326 43.1712 60.5049 43.1712 60.3874ZM43.2938 58.5827L43.3014 59.0808H42.5849C42.3831 59.0808 42.203 59.0974 42.0446 59.1306C41.8863 59.1612 41.7535 59.2085 41.6462 59.2724C41.5389 59.3362 41.4572 59.4167 41.4009 59.5138C41.3447 59.6083 41.3166 59.7194 41.3166 59.8471C41.3166 59.9774 41.346 60.0962 41.4048 60.2035C41.4636 60.3107 41.5517 60.3963 41.6692 60.4602C41.7892 60.5215 41.9361 60.5521 42.1098 60.5521C42.3269 60.5521 42.5185 60.5062 42.6845 60.4142C42.8506 60.3222 42.9822 60.2098 43.0792 60.077C43.1788 59.9442 43.2325 59.8152 43.2402 59.69L43.5428 60.031C43.525 60.1383 43.4764 60.2571 43.3972 60.3874C43.3181 60.5177 43.212 60.6428 43.0792 60.7629C42.9489 60.8804 42.7931 60.9787 42.6118 61.0579C42.433 61.1346 42.2311 61.1729 42.0064 61.1729C41.7254 61.1729 41.4789 61.1179 41.2668 61.0081C41.0574 60.8983 40.8939 60.7514 40.7764 60.5674C40.6615 60.381 40.6039 60.1728 40.6039 59.9429C40.6039 59.7207 40.6474 59.5253 40.7343 59.3567C40.8211 59.1855 40.9463 59.0437 41.1098 58.9314C41.2732 58.8164 41.4699 58.7295 41.6998 58.6708C41.9297 58.612 42.1865 58.5827 42.47 58.5827H43.2938ZM46.7308 56.9504V57.4945H44.4893V56.9504H46.7308ZM45.2479 55.9427H45.9568V60.0694C45.9568 60.2098 45.9785 60.3159 46.0219 60.3874C46.0653 60.4589 46.1216 60.5062 46.1905 60.5291C46.2595 60.5521 46.3335 60.5636 46.4127 60.5636C46.4715 60.5636 46.5328 60.5585 46.5966 60.5483C46.6631 60.5355 46.7129 60.5253 46.7461 60.5177L46.7499 61.0962C46.6937 61.1141 46.6197 61.1307 46.5277 61.1461C46.4383 61.1639 46.3297 61.1729 46.202 61.1729C46.0283 61.1729 45.8686 61.1384 45.723 61.0694C45.5775 61.0004 45.4612 60.8855 45.3744 60.7246C45.2901 60.5611 45.2479 60.3414 45.2479 60.0655V55.9427ZM48.3324 56.9504V61.0962H47.6197V56.9504H48.3324ZM47.5661 55.8507C47.5661 55.7357 47.6006 55.6387 47.6695 55.5595C47.7411 55.4803 47.8458 55.4407 47.9837 55.4407C48.1191 55.4407 48.2226 55.4803 48.2941 55.5595C48.3682 55.6387 48.4052 55.7357 48.4052 55.8507C48.4052 55.9605 48.3682 56.0551 48.2941 56.1342C48.2226 56.2109 48.1191 56.2492 47.9837 56.2492C47.8458 56.2492 47.7411 56.2109 47.6695 56.1342C47.6006 56.0551 47.5661 55.9605 47.5661 55.8507ZM50.731 60.4563L51.8652 56.9504H52.5893L51.0989 61.0962H50.6237L50.731 60.4563ZM49.7846 56.9504L50.9533 60.4755L51.0337 61.0962H50.5586L49.0566 56.9504H49.7846ZM54.0416 56.9504V61.0962H53.3289V56.9504H54.0416ZM53.2752 55.8507C53.2752 55.7357 53.3097 55.6387 53.3787 55.5595C53.4502 55.4803 53.5549 55.4407 53.6929 55.4407C53.8283 55.4407 53.9317 55.4803 54.0033 55.5595C54.0774 55.6387 54.1143 55.7357 54.1143 55.8507C54.1143 55.9605 54.0774 56.0551 54.0033 56.1342C53.9317 56.2109 53.8283 56.2492 53.6929 56.2492C53.5549 56.2492 53.4502 56.2109 53.3787 56.1342C53.3097 56.0551 53.2752 55.9605 53.2752 55.8507ZM57.7925 60.2916V55.2108H58.5055V61.0962H57.8542L57.7925 60.2916ZM55.0033 59.0693V58.9888C55.0033 58.6721 55.0416 58.3847 55.1183 58.1267C55.1974 57.8661 55.3086 57.6426 55.4516 57.4562C55.5972 57.2697 55.7697 57.1266 55.9689 57.027C56.1709 56.9248 56.3957 56.8738 56.6434 56.8738C56.9041 56.8738 57.1311 56.9197 57.325 57.0117C57.5218 57.1011 57.6882 57.2327 57.8233 57.4064C57.9612 57.5775 58.07 57.7844 58.149 58.0271C58.228 58.2698 58.283 58.5444 58.3138 58.8509V59.2034C58.2858 59.5074 58.2308 59.7807 58.149 60.0234C58.07 60.266 57.9612 60.4729 57.8233 60.6441C57.6882 60.8152 57.5218 60.9468 57.325 61.0388C57.1289 61.1282 56.8985 61.1729 56.6356 61.1729C56.3929 61.1729 56.1709 61.1205 55.9689 61.0157C55.7697 60.911 55.5972 60.7642 55.4516 60.5751C55.3086 60.3861 55.1974 60.1639 55.1183 59.9084C55.0416 59.6504 55.0033 59.3707 55.0033 59.0693ZM55.716 58.9888V59.0693C55.716 59.2762 55.7364 59.4703 55.7773 59.6517C55.8207 59.8331 55.8871 59.9927 55.9765 60.1307C56.0661 60.2686 56.1799 60.3772 56.3178 60.4563C56.4557 60.533 56.6205 60.5713 56.8116 60.5713C57.047 60.5713 57.2398 60.5215 57.3906 60.4219C57.5436 60.3222 57.6664 60.1907 57.7583 60.0272C57.8502 59.8637 57.922 59.6862 57.973 59.4946V58.5712C57.9422 58.4307 57.8973 58.2953 57.8385 58.165C57.7824 58.0322 57.7084 57.9147 57.6165 57.8125C57.5268 57.7078 57.4158 57.6248 57.283 57.5635C57.153 57.5021 56.9983 57.4715 56.8195 57.4715C56.6255 57.4715 56.4579 57.5124 56.3178 57.5941C56.1799 57.6733 56.0661 57.7831 55.9765 57.9236C55.8871 58.0616 55.8207 58.2225 55.7773 58.4064C55.7364 58.5878 55.716 58.7819 55.716 58.9888ZM62.0535 60.3874V58.2531C62.0535 58.0897 62.0205 57.9479 61.9538 57.8278C61.8899 57.7052 61.7929 57.6107 61.6629 57.5443C61.5323 57.4779 61.3714 57.4447 61.1797 57.4447C61.0009 57.4447 60.844 57.4753 60.7089 57.5366C60.576 57.5979 60.4712 57.6784 60.3944 57.778C60.3204 57.8776 60.2834 57.9849 60.2834 58.0999H59.5744C59.5744 57.9517 59.6131 57.8048 59.6893 57.6592C59.7661 57.5136 59.8759 57.3821 60.0189 57.2646C60.1646 57.1445 60.3384 57.05 60.5402 56.981C60.7442 56.9095 60.9717 56.8738 61.2223 56.8738C61.5233 56.8738 61.789 56.9248 62.0188 57.027C62.2514 57.1292 62.433 57.2837 62.5631 57.4906C62.6959 57.695 62.7626 57.9517 62.7626 58.2608V60.192C62.7626 60.3299 62.7738 60.4768 62.7968 60.6326C62.8226 60.7884 62.8596 60.9225 62.9078 61.0349V61.0962H62.1685C62.1326 61.0145 62.1046 60.9059 62.0844 60.7705C62.0636 60.6326 62.0535 60.5049 62.0535 60.3874ZM62.1763 58.5827L62.1836 59.0808H61.4672C61.2655 59.0808 61.0855 59.0974 60.9269 59.1306C60.7688 59.1612 60.636 59.2085 60.5284 59.2724C60.4213 59.3362 60.3395 59.4167 60.2834 59.5138C60.2274 59.6083 60.1988 59.7194 60.1988 59.8471C60.1988 59.9774 60.2285 60.0962 60.2874 60.2035C60.3457 60.3107 60.4342 60.3963 60.5514 60.4602C60.6719 60.5215 60.8187 60.5521 60.9919 60.5521C61.2094 60.5521 61.4011 60.5062 61.567 60.4142C61.7329 60.3222 61.8647 60.2098 61.9616 60.077C62.0614 59.9442 62.1146 59.8152 62.1225 59.69L62.4252 60.031C62.4072 60.1383 62.359 60.2571 62.2794 60.3874C62.2004 60.5177 62.0945 60.6428 61.9616 60.7629C61.8316 60.8804 61.6758 60.9787 61.4941 61.0579C61.3153 61.1346 61.1136 61.1729 60.8888 61.1729C60.608 61.1729 60.3613 61.1179 60.1495 61.0081C59.9398 60.8983 59.7762 60.7514 59.659 60.5674C59.5436 60.381 59.4864 60.1728 59.4864 59.9429C59.4864 59.7207 59.5295 59.5253 59.6164 59.3567C59.7033 59.1855 59.8289 59.0437 59.992 58.9314C60.1556 58.8164 60.3524 58.7295 60.5822 58.6708C60.812 58.612 61.0687 58.5827 61.3523 58.5827H62.1763ZM66.4906 60.2916V55.2108H67.2036V61.0962H66.5517L66.4906 60.2916ZM63.7009 59.0693V58.9888C63.7009 58.6721 63.7396 58.3847 63.8164 58.1267C63.8954 57.8661 64.0064 57.6426 64.1493 57.4562C64.295 57.2697 64.4677 57.1266 64.6667 57.027C64.8685 56.9248 65.0932 56.8738 65.341 56.8738C65.6016 56.8738 65.8292 56.9197 66.0231 57.0117C66.2199 57.1011 66.3858 57.2327 66.5214 57.4064C66.6593 57.5775 66.7675 57.7844 66.8471 58.0271C66.9261 58.2698 66.981 58.5444 67.0119 58.8509V59.2034C66.9838 59.5074 66.9289 59.7807 66.8471 60.0234C66.7675 60.266 66.6593 60.4729 66.5214 60.6441C66.3858 60.8152 66.2199 60.9468 66.0231 61.0388C65.8264 61.1282 65.5966 61.1729 65.3337 61.1729C65.091 61.1729 64.8685 61.1205 64.6667 61.0157C64.4677 60.911 64.295 60.7642 64.1493 60.5751C64.0064 60.3861 63.8954 60.1639 63.8164 59.9084C63.7396 59.6504 63.7009 59.3707 63.7009 59.0693ZM64.4139 58.9888V59.0693C64.4139 59.2762 64.4341 59.4703 64.475 59.6517C64.5187 59.8331 64.5848 59.9927 64.6745 60.1307C64.7636 60.2686 64.8774 60.3772 65.0153 60.4563C65.1532 60.533 65.318 60.5713 65.5097 60.5713C65.7445 60.5713 65.9374 60.5215 66.0881 60.4219C66.2417 60.3222 66.3639 60.1907 66.4558 60.0272C66.5483 59.8637 66.6195 59.6862 66.6705 59.4946V58.5712C66.6402 58.4307 66.5954 58.2953 66.5366 58.165C66.4805 58.0322 66.4065 57.9147 66.3146 57.8125C66.2249 57.7078 66.1139 57.6248 65.9811 57.5635C65.8505 57.5021 65.6963 57.4715 65.5175 57.4715C65.323 57.4715 65.156 57.5124 65.0153 57.5941C64.8774 57.6733 64.7636 57.7831 64.6745 57.9236C64.5848 58.0616 64.5187 58.2225 64.475 58.4064C64.4341 58.5878 64.4139 58.7819 64.4139 58.9888ZM70.0274 61.1729C69.7388 61.1729 69.4765 61.1243 69.2416 61.0273C69.0095 60.9276 68.8089 60.7884 68.6402 60.6096C68.4743 60.4308 68.3465 60.2188 68.2568 59.9736C68.1677 59.7283 68.1228 59.4601 68.1228 59.1689V59.008C68.1228 58.6708 68.1727 58.3707 68.2725 58.1075C68.3717 57.8419 68.5073 57.6171 68.6783 57.4332C68.8498 57.2493 69.0437 57.11 69.2607 57.0155C69.4781 56.921 69.7029 56.8738 69.9355 56.8738C70.2315 56.8738 70.4871 56.9248 70.7017 57.027C70.9187 57.1292 71.0963 57.2722 71.2342 57.4562C71.3721 57.6375 71.4741 57.8521 71.5408 58.0999C71.607 58.3451 71.6406 58.6133 71.6406 58.9045V59.2226H68.5443V58.644H70.9316V58.5903C70.9215 58.4064 70.8828 58.2276 70.8167 58.0539C70.7528 57.8802 70.6507 57.7372 70.51 57.6248C70.3694 57.5124 70.1777 57.4562 69.9355 57.4562C69.7741 57.4562 69.6261 57.4906 69.491 57.5596C69.3554 57.626 69.2394 57.7257 69.1418 57.8585C69.0449 57.9913 68.9697 58.1535 68.9159 58.3451C68.8621 58.5367 68.8358 58.7576 68.8358 59.008V59.1689C68.8358 59.3656 68.8621 59.5508 68.9159 59.7245C68.972 59.8956 69.0527 60.0464 69.1575 60.1766C69.2646 60.3069 69.3935 60.4091 69.5443 60.4832C69.6979 60.5572 69.8716 60.5943 70.0656 60.5943C70.3161 60.5943 70.528 60.5432 70.7017 60.441C70.8755 60.3388 71.0274 60.2022 71.1574 60.031L71.5868 60.3721C71.4971 60.5074 71.3839 60.6364 71.2454 60.759C71.1076 60.8817 70.9377 60.9813 70.7359 61.0579C70.5369 61.1346 70.3004 61.1729 70.0274 61.1729ZM76.1348 61.1729C75.8462 61.1729 75.5844 61.1243 75.3495 61.0273C75.1169 60.9276 74.9163 60.7884 74.7475 60.6096C74.5816 60.4308 74.4538 60.2188 74.3647 59.9736C74.275 59.7283 74.2308 59.4601 74.2308 59.1689V59.008C74.2308 58.6708 74.2801 58.3707 74.3799 58.1075C74.4796 57.8419 74.6147 57.6171 74.7862 57.4332C74.9572 57.2493 75.1517 57.11 75.3686 57.0155C75.5855 56.921 75.8103 56.8738 76.0429 56.8738C76.3394 56.8738 76.5945 56.9248 76.8091 57.027C77.0266 57.1292 77.2037 57.2722 77.3416 57.4562C77.4795 57.6375 77.5821 57.8521 77.6482 58.0999C77.7149 58.3451 77.748 58.6133 77.748 58.9045V59.2226H74.6523V58.644H77.0389V58.5903C77.0288 58.4064 76.9907 58.2276 76.924 58.0539C76.8601 57.8802 76.7581 57.7372 76.6174 57.6248C76.4773 57.5124 76.2856 57.4562 76.0429 57.4562C75.882 57.4562 75.7341 57.4906 75.5984 57.5596C75.4633 57.626 75.3467 57.7257 75.2498 57.8585C75.1528 57.9913 75.0771 58.1535 75.0239 58.3451C74.9701 58.5367 74.9432 58.7576 74.9432 59.008V59.1689C74.9432 59.3656 74.9701 59.5508 75.0239 59.7245C75.0799 59.8956 75.1601 60.0464 75.2649 60.1766C75.3725 60.3069 75.5014 60.4091 75.6522 60.4832C75.8052 60.5572 75.979 60.5943 76.1729 60.5943C76.4235 60.5943 76.6354 60.5432 76.8091 60.441C76.9829 60.3388 77.1348 60.2022 77.2654 60.031L77.6942 60.3721C77.6051 60.5074 77.4913 60.6364 77.3534 60.759C77.2155 60.8817 77.0457 60.9813 76.8439 61.0579C76.6443 61.1346 76.4084 61.1729 76.1348 61.1729ZM79.2844 57.8355V61.0962H78.5759V56.9504H79.2462L79.2844 57.8355ZM79.1156 58.8662L78.8208 58.8547C78.8236 58.5712 78.8657 58.3093 78.9475 58.0692C79.0288 57.8266 79.1442 57.6158 79.2922 57.437C79.4402 57.2582 79.6168 57.1203 79.8208 57.0232C80.0276 56.9236 80.2563 56.8738 80.5069 56.8738C80.7109 56.8738 80.8953 56.9019 81.0584 56.958C81.2221 57.0117 81.3611 57.0985 81.476 57.2186C81.5937 57.3387 81.6834 57.4945 81.7445 57.6861C81.8056 57.8751 81.8364 58.1063 81.8364 58.3796V61.0962H81.1234V58.3719C81.1234 58.1548 81.092 57.9811 81.0281 57.8508C80.9642 57.718 80.8706 57.6222 80.7484 57.5635C80.6257 57.5021 80.4749 57.4715 80.2961 57.4715C80.1195 57.4715 79.9587 57.5085 79.8135 57.5826C79.67 57.6567 79.5461 57.7589 79.4413 57.8891C79.3393 58.0194 79.2591 58.1688 79.2003 58.3374C79.1442 58.5035 79.1156 58.6797 79.1156 58.8662ZM84.5723 60.5905C84.741 60.5905 84.8968 60.556 85.0397 60.487C85.1827 60.418 85.3004 60.3235 85.3923 60.2035C85.4842 60.0808 85.5364 59.9416 85.5493 59.7858H86.2235C86.2107 60.031 86.1277 60.2597 85.9747 60.4717C85.8239 60.6811 85.626 60.851 85.3805 60.9813C85.1356 61.109 84.866 61.1729 84.5723 61.1729C84.2606 61.1729 83.9882 61.1179 83.7562 61.0081C83.5264 60.8983 83.3346 60.7475 83.1811 60.556C83.0303 60.3644 82.9171 60.1447 82.8403 59.8969C82.7663 59.6466 82.7293 59.3822 82.7293 59.1038V58.9428C82.7293 58.6644 82.7663 58.4013 82.8403 58.1535C82.9171 57.9032 83.0303 57.6822 83.1811 57.4906C83.3346 57.2991 83.5264 57.1484 83.7562 57.0385C83.9882 56.9287 84.2606 56.8738 84.5723 56.8738C84.8968 56.8738 85.1799 56.9402 85.4226 57.073C85.6653 57.2033 85.8559 57.3821 85.9937 57.6094C86.1344 57.8342 86.2107 58.0897 86.2235 58.3758H85.5493C85.5364 58.2046 85.4882 58.0501 85.4035 57.9121C85.3217 57.7742 85.2096 57.6644 85.0666 57.5826C84.926 57.4983 84.7612 57.4562 84.5723 57.4562C84.3548 57.4562 84.1726 57.4996 84.0241 57.5864C83.8789 57.6707 83.7623 57.7857 83.6754 57.9313C83.5914 58.0743 83.5297 58.234 83.4916 58.4102C83.4557 58.5839 83.4378 58.7615 83.4378 58.9428V59.1038C83.4378 59.2851 83.4557 59.4639 83.4916 59.6402C83.5275 59.8165 83.5874 59.9761 83.6715 60.1192C83.7584 60.2622 83.875 60.3772 84.0202 60.464C84.1687 60.5483 84.3525 60.5905 84.5723 60.5905ZM86.8328 59.0693V58.9812C86.8328 58.6823 86.876 58.4051 86.9629 58.1497C87.0498 57.8917 87.1753 57.6682 87.3384 57.4792C87.5021 57.2876 87.7 57.1394 87.9326 57.0347C88.1652 56.9274 88.4253 56.8738 88.7139 56.8738C89.0054 56.8738 89.2672 56.9274 89.4998 57.0347C89.7346 57.1394 89.9342 57.2876 90.0973 57.4792C90.2632 57.6682 90.3899 57.8917 90.4767 58.1497C90.5636 58.4051 90.6068 58.6823 90.6068 58.9812V59.0693C90.6068 59.3682 90.5636 59.6453 90.4767 59.9008C90.3899 60.1562 90.2632 60.3797 90.0973 60.5713C89.9342 60.7603 89.7357 60.9085 89.5037 61.0157C89.2739 61.1205 89.0132 61.1729 88.7218 61.1729C88.4309 61.1729 88.1685 61.1205 87.9365 61.0157C87.7039 60.9085 87.5049 60.7603 87.3384 60.5713C87.1753 60.3797 87.0498 60.1562 86.9629 59.9008C86.876 59.6453 86.8328 59.3682 86.8328 59.0693ZM87.5419 58.9812V59.0693C87.5419 59.2762 87.566 59.4716 87.6148 59.6555C87.663 59.8369 87.7358 59.9978 87.8328 60.1383C87.9326 60.2788 88.0564 60.3899 88.2044 60.4717C88.353 60.5509 88.525 60.5905 88.7218 60.5905C88.9157 60.5905 89.0861 60.5509 89.2313 60.4717C89.3798 60.3899 89.502 60.2788 89.5995 60.1383C89.6965 59.9978 89.7694 59.8369 89.8176 59.6555C89.8686 59.4716 89.8944 59.2762 89.8944 59.0693V58.9812C89.8944 58.7768 89.8686 58.5839 89.8176 58.4026C89.7694 58.2187 89.6948 58.0565 89.5956 57.916C89.4986 57.7729 89.3759 57.6605 89.2274 57.5788C89.0822 57.497 88.9107 57.4562 88.7139 57.4562C88.52 57.4562 88.349 57.497 88.2005 57.5788C88.0553 57.6605 87.9326 57.7729 87.8328 57.916C87.7358 58.0565 87.663 58.2187 87.6148 58.4026C87.566 58.5839 87.5419 58.7768 87.5419 58.9812ZM92.2048 57.8355V61.0962H91.4958V56.9504H92.1667L92.2048 57.8355ZM92.0361 58.8662L91.7413 58.8547C91.7435 58.5712 91.7861 58.3093 91.8674 58.0692C91.9492 57.8266 92.0641 57.6158 92.2127 57.437C92.3606 57.2582 92.5366 57.1203 92.7412 57.0232C92.9481 56.9236 93.1768 56.8738 93.4273 56.8738C93.6313 56.8738 93.8152 56.9019 93.9788 56.958C94.1425 57.0117 94.2815 57.0985 94.3964 57.2186C94.5141 57.3387 94.6033 57.4945 94.6649 57.6861C94.726 57.8751 94.7568 58.1063 94.7568 58.3796V61.0962H94.0439V58.3719C94.0439 58.1548 94.0119 57.9811 93.948 57.8508C93.8841 57.718 93.7911 57.6222 93.6683 57.5635C93.5461 57.5021 93.3953 57.4715 93.2165 57.4715C93.04 57.4715 92.8791 57.5085 92.7334 57.5826C92.5904 57.6567 92.4666 57.7589 92.3618 57.8891C92.2597 58.0194 92.179 58.1688 92.1207 58.3374C92.0641 58.5035 92.0361 58.6797 92.0361 58.8662ZM97.569 56.9504V57.4945H95.3274V56.9504H97.569ZM96.0864 55.9427H96.7949V60.0694C96.7949 60.2098 96.8167 60.3159 96.8605 60.3874C96.9036 60.4589 96.9597 60.5062 97.0286 60.5291C97.0976 60.5521 97.1721 60.5636 97.2511 60.5636C97.31 60.5636 97.3711 60.5585 97.435 60.5483C97.5017 60.5355 97.551 60.5253 97.5846 60.5177L97.588 61.0962C97.532 61.1141 97.458 61.1307 97.366 61.1461C97.2769 61.1639 97.1682 61.1729 97.0404 61.1729C96.8666 61.1729 96.7069 61.1384 96.5611 61.0694C96.416 61.0004 96.2994 60.8855 96.2125 60.7246C96.1284 60.5611 96.0864 60.3414 96.0864 60.0655V55.9427ZM99.1092 57.6018V61.0962H98.4008V56.9504H99.0902L99.1092 57.6018ZM100.405 56.9274L100.401 57.5864C100.342 57.5737 100.286 57.566 100.232 57.5635C100.181 57.5583 100.122 57.5558 100.056 57.5558C99.8923 57.5558 99.7482 57.5813 99.6227 57.6324C99.4977 57.6835 99.3918 57.755 99.3049 57.847C99.218 57.939 99.149 58.0488 99.098 58.1765C99.0493 58.3017 99.0173 58.4396 99.0022 58.5903L98.8026 58.7053C98.8026 58.4549 98.8273 58.2199 98.8755 58.0003C98.9271 57.7806 99.005 57.5864 99.1092 57.4178C99.2141 57.2467 99.3469 57.1139 99.5078 57.0194C99.6714 56.9223 99.8654 56.8738 100.09 56.8738C100.142 56.8738 100.2 56.8801 100.267 56.8929C100.333 56.9031 100.379 56.9146 100.405 56.9274ZM103.351 60.3874V58.2531C103.351 58.0897 103.318 57.9479 103.251 57.8278C103.188 57.7052 103.091 57.6107 102.96 57.5443C102.83 57.4779 102.669 57.4447 102.477 57.4447C102.299 57.4447 102.142 57.4753 102.006 57.5366C101.873 57.5979 101.768 57.6784 101.692 57.778C101.618 57.8776 101.581 57.9849 101.581 58.0999H100.872C100.872 57.9517 100.91 57.8048 100.987 57.6592C101.064 57.5136 101.174 57.3821 101.317 57.2646C101.462 57.1445 101.636 57.05 101.838 56.981C102.042 56.9095 102.269 56.8738 102.519 56.8738C102.821 56.8738 103.087 56.9248 103.316 57.027C103.549 57.1292 103.73 57.2837 103.861 57.4906C103.994 57.695 104.06 57.9517 104.06 58.2608V60.192C104.06 60.3299 104.072 60.4768 104.094 60.6326C104.12 60.7884 104.157 60.9225 104.205 61.0349V61.0962H103.466C103.43 61.0145 103.402 60.9059 103.382 60.7705C103.361 60.6326 103.351 60.5049 103.351 60.3874ZM103.473 58.5827L103.481 59.0808H102.765C102.563 59.0808 102.383 59.0974 102.225 59.1306C102.066 59.1612 101.933 59.2085 101.826 59.2724C101.719 59.3362 101.637 59.4167 101.581 59.5138C101.525 59.6083 101.496 59.7194 101.496 59.8471C101.496 59.9774 101.526 60.0962 101.584 60.2035C101.643 60.3107 101.731 60.3963 101.849 60.4602C101.969 60.5215 102.116 60.5521 102.29 60.5521C102.507 60.5521 102.698 60.5062 102.865 60.4142C103.031 60.3222 103.162 60.2098 103.259 60.077C103.359 59.9442 103.412 59.8152 103.42 59.69L103.723 60.031C103.705 60.1383 103.656 60.2571 103.577 60.3874C103.498 60.5177 103.392 60.6428 103.259 60.7629C103.129 60.8804 102.973 60.9787 102.792 61.0579C102.613 61.1346 102.411 61.1729 102.186 61.1729C101.905 61.1729 101.659 61.1179 101.447 61.0081C101.238 60.8983 101.074 60.7514 100.956 60.5674C100.841 60.381 100.784 60.1728 100.784 59.9429C100.784 59.7207 100.827 59.5253 100.914 59.3567C101.001 59.1855 101.126 59.0437 101.29 58.9314C101.453 58.8164 101.65 58.7295 101.88 58.6708C102.11 58.612 102.366 58.5827 102.65 58.5827H103.473ZM109.566 60.3874V58.2531C109.566 58.0897 109.533 57.9479 109.466 57.8278C109.403 57.7052 109.306 57.6107 109.175 57.5443C109.045 57.4779 108.884 57.4447 108.692 57.4447C108.514 57.4447 108.357 57.4753 108.221 57.5366C108.088 57.5979 107.983 57.6784 107.907 57.778C107.833 57.8776 107.796 57.9849 107.796 58.0999H107.087C107.087 57.9517 107.125 57.8048 107.202 57.6592C107.279 57.5136 107.389 57.3821 107.532 57.2646C107.677 57.1445 107.85 57.05 108.052 56.981C108.257 56.9095 108.484 56.8738 108.734 56.8738C109.036 56.8738 109.302 56.9248 109.531 57.027C109.764 57.1292 109.945 57.2837 110.076 57.4906C110.209 57.695 110.275 57.9517 110.275 58.2608V60.192C110.275 60.3299 110.286 60.4768 110.309 60.6326C110.335 60.7884 110.372 60.9225 110.42 61.0349V61.0962H109.681C109.645 61.0145 109.617 60.9059 109.597 60.7705C109.576 60.6326 109.566 60.5049 109.566 60.3874ZM109.688 58.5827L109.696 59.0808H108.98C108.778 59.0808 108.598 59.0974 108.44 59.1306C108.281 59.1612 108.148 59.2085 108.041 59.2724C107.934 59.3362 107.852 59.4167 107.796 59.5138C107.74 59.6083 107.711 59.7194 107.711 59.8471C107.711 59.9774 107.741 60.0962 107.799 60.2035C107.858 60.3107 107.946 60.3963 108.064 60.4602C108.184 60.5215 108.331 60.5521 108.505 60.5521C108.722 60.5521 108.913 60.5062 109.079 60.4142C109.246 60.3222 109.377 60.2098 109.474 60.077C109.574 59.9442 109.627 59.8152 109.635 59.69L109.938 60.031C109.92 60.1383 109.871 60.2571 109.792 60.3874C109.713 60.5177 109.607 60.6428 109.474 60.7629C109.344 60.8804 109.188 60.9787 109.007 61.0579C108.828 61.1346 108.626 61.1729 108.401 61.1729C108.12 61.1729 107.873 61.1179 107.662 61.0081C107.452 60.8983 107.289 60.7514 107.171 60.5674C107.056 60.381 106.999 60.1728 106.999 59.9429C106.999 59.7207 107.042 59.5253 107.129 59.3567C107.216 59.1855 107.341 59.0437 107.505 58.9314C107.668 58.8164 107.865 58.7295 108.095 58.6708C108.325 58.612 108.581 58.5827 108.865 58.5827H109.688ZM115.072 56.9504V57.4945H112.831V56.9504H115.072ZM113.589 55.9427H114.298V60.0694C114.298 60.2098 114.32 60.3159 114.363 60.3874C114.407 60.4589 114.463 60.5062 114.532 60.5291C114.601 60.5521 114.675 60.5636 114.754 60.5636C114.813 60.5636 114.874 60.5585 114.938 60.5483C115.004 60.5355 115.054 60.5253 115.087 60.5177L115.091 61.0962C115.035 61.1141 114.961 61.1307 114.869 61.1461C114.78 61.1639 114.671 61.1729 114.544 61.1729C114.37 61.1729 114.21 61.1384 114.064 61.0694C113.919 61.0004 113.803 60.8855 113.716 60.7246C113.632 60.5611 113.589 60.3414 113.589 60.0655V55.9427ZM117.624 61.1729C117.336 61.1729 117.074 61.1243 116.838 61.0273C116.606 60.9276 116.406 60.7884 116.237 60.6096C116.071 60.4308 115.943 60.2188 115.854 59.9736C115.764 59.7283 115.72 59.4601 115.72 59.1689V59.008C115.72 58.6708 115.769 58.3707 115.869 58.1075C115.968 57.8419 116.104 57.6171 116.275 57.4332C116.447 57.2493 116.641 57.11 116.857 57.0155C117.075 56.921 117.3 56.8738 117.532 56.8738C117.828 56.8738 118.084 56.9248 118.299 57.027C118.515 57.1292 118.693 57.2722 118.831 57.4562C118.969 57.6375 119.071 57.8521 119.138 58.0999C119.204 58.3451 119.237 58.6133 119.237 58.9045V59.2226H116.141V58.644H118.528V58.5903C118.518 58.4064 118.48 58.2276 118.413 58.0539C118.35 57.8802 118.248 57.7372 118.107 57.6248C117.966 57.5124 117.774 57.4562 117.532 57.4562C117.371 57.4562 117.223 57.4906 117.088 57.5596C116.952 57.626 116.836 57.7257 116.739 57.8585C116.642 57.9913 116.567 58.1535 116.513 58.3451C116.459 58.5367 116.433 58.7576 116.433 59.008V59.1689C116.433 59.3656 116.459 59.5508 116.513 59.7245C116.569 59.8956 116.649 60.0464 116.754 60.1766C116.861 60.3069 116.99 60.4091 117.141 60.4832C117.295 60.5572 117.468 60.5943 117.662 60.5943C117.913 60.5943 118.125 60.5432 118.299 60.441C118.472 60.3388 118.624 60.2022 118.754 60.031L119.184 60.3721C119.094 60.5074 118.981 60.6364 118.842 60.759C118.704 60.8817 118.534 60.9813 118.333 61.0579C118.134 61.1346 117.897 61.1729 117.624 61.1729ZM121.724 60.5905C121.893 60.5905 122.048 60.556 122.191 60.487C122.334 60.418 122.452 60.3235 122.544 60.2035C122.636 60.0808 122.688 59.9416 122.701 59.7858H123.375C123.363 60.031 123.279 60.2597 123.126 60.4717C122.975 60.6811 122.778 60.851 122.532 60.9813C122.287 61.109 122.018 61.1729 121.724 61.1729C121.412 61.1729 121.14 61.1179 120.908 61.0081C120.678 60.8983 120.486 60.7475 120.333 60.556C120.182 60.3644 120.069 60.1447 119.992 59.8969C119.918 59.6466 119.881 59.3822 119.881 59.1038V58.9428C119.881 58.6644 119.918 58.4013 119.992 58.1535C120.069 57.9032 120.182 57.6822 120.333 57.4906C120.486 57.2991 120.678 57.1484 120.908 57.0385C121.14 56.9287 121.412 56.8738 121.724 56.8738C122.048 56.8738 122.332 56.9402 122.575 57.073C122.817 57.2033 123.007 57.3821 123.145 57.6094C123.286 57.8342 123.363 58.0897 123.375 58.3758H122.701C122.688 58.2046 122.64 58.0501 122.555 57.9121C122.474 57.7742 122.361 57.6644 122.218 57.5826C122.078 57.4983 121.913 57.4562 121.724 57.4562C121.507 57.4562 121.324 57.4996 121.176 57.5864C121.03 57.6707 120.914 57.7857 120.827 57.9313C120.743 58.0743 120.682 58.234 120.643 58.4102C120.608 58.5839 120.59 58.7615 120.59 58.9428V59.1038C120.59 59.2851 120.608 59.4639 120.643 59.6402C120.679 59.8165 120.739 59.9761 120.824 60.1192C120.911 60.2622 121.027 60.3772 121.172 60.464C121.32 60.5483 121.504 60.5905 121.724 60.5905ZM124.881 57.8355V61.0962H124.172V56.9504H124.843L124.881 57.8355ZM124.712 58.8662L124.418 58.8547C124.42 58.5712 124.462 58.3093 124.544 58.0692C124.626 57.8266 124.741 57.6158 124.889 57.437C125.037 57.2582 125.213 57.1203 125.418 57.0232C125.624 56.9236 125.853 56.8738 126.104 56.8738C126.308 56.8738 126.492 56.9019 126.655 56.958C126.819 57.0117 126.958 57.0985 127.073 57.2186C127.191 57.3387 127.28 57.4945 127.341 57.6861C127.402 57.8751 127.433 58.1063 127.433 58.3796V61.0962H126.72V58.3719C126.72 58.1548 126.688 57.9811 126.624 57.8508C126.561 57.718 126.467 57.6222 126.345 57.5635C126.222 57.5021 126.072 57.4715 125.893 57.4715C125.716 57.4715 125.556 57.5085 125.41 57.5826C125.267 57.6567 125.143 57.7589 125.038 57.8891C124.936 58.0194 124.855 58.1688 124.797 58.3374C124.741 58.5035 124.712 58.6797 124.712 58.8662ZM128.322 59.0693V58.9812C128.322 58.6823 128.365 58.4051 128.452 58.1497C128.539 57.8917 128.664 57.6682 128.828 57.4792C128.991 57.2876 129.189 57.1394 129.421 57.0347C129.654 56.9274 129.915 56.8738 130.203 56.8738C130.495 56.8738 130.757 56.9274 130.989 57.0347C131.224 57.1394 131.423 57.2876 131.587 57.4792C131.753 57.6682 131.879 57.8917 131.966 58.1497C132.052 58.4051 132.096 58.6823 132.096 58.9812V59.0693C132.096 59.3682 132.052 59.6453 131.966 59.9008C131.879 60.1562 131.753 60.3797 131.587 60.5713C131.423 60.7603 131.225 60.9085 130.993 61.0157C130.763 61.1205 130.502 61.1729 130.211 61.1729C129.92 61.1729 129.658 61.1205 129.425 61.0157C129.193 60.9085 128.994 60.7603 128.828 60.5713C128.664 60.3797 128.539 60.1562 128.452 59.9008C128.365 59.6453 128.322 59.3682 128.322 59.0693ZM129.031 58.9812V59.0693C129.031 59.2762 129.055 59.4716 129.104 59.6555C129.152 59.8369 129.225 59.9978 129.322 60.1383C129.421 60.2788 129.545 60.3899 129.694 60.4717C129.842 60.5509 130.014 60.5905 130.211 60.5905C130.405 60.5905 130.575 60.5509 130.721 60.4717C130.869 60.3899 130.991 60.2788 131.088 60.1383C131.185 59.9978 131.258 59.8369 131.307 59.6555C131.358 59.4716 131.383 59.2762 131.383 59.0693V58.9812C131.383 58.7768 131.358 58.5839 131.307 58.4026C131.258 58.2187 131.184 58.0565 131.084 57.916C130.987 57.7729 130.865 57.6605 130.717 57.5788C130.571 57.497 130.4 57.4562 130.203 57.4562C130.009 57.4562 129.838 57.497 129.69 57.5788C129.544 57.6605 129.421 57.7729 129.322 57.916C129.225 58.0565 129.152 58.2187 129.104 58.4026C129.055 58.5839 129.031 58.7768 129.031 58.9812ZM133.755 55.2108V61.0962H133.042V55.2108H133.755ZM134.705 59.0693V58.9812C134.705 58.6823 134.749 58.4051 134.836 58.1497C134.923 57.8917 135.048 57.6682 135.212 57.4792C135.375 57.2876 135.572 57.1394 135.805 57.0347C136.038 56.9274 136.298 56.8738 136.587 56.8738C136.878 56.8738 137.14 56.9274 137.372 57.0347C137.607 57.1394 137.807 57.2876 137.97 57.4792C138.136 57.6682 138.262 57.8917 138.349 58.1497C138.436 58.4051 138.48 58.6823 138.48 58.9812V59.0693C138.48 59.3682 138.436 59.6453 138.349 59.9008C138.262 60.1562 138.136 60.3797 137.97 60.5713C137.807 60.7603 137.609 60.9085 137.376 61.0157C137.146 61.1205 136.886 61.1729 136.594 61.1729C136.303 61.1729 136.042 61.1205 135.809 61.0157C135.576 60.9085 135.377 60.7603 135.212 60.5713C135.048 60.3797 134.923 60.1562 134.836 59.9008C134.749 59.6453 134.705 59.3682 134.705 59.0693ZM135.414 58.9812V59.0693C135.414 59.2762 135.439 59.4716 135.487 59.6555C135.535 59.8369 135.608 59.9978 135.705 60.1383C135.805 60.2788 135.929 60.3899 136.077 60.4717C136.225 60.5509 136.398 60.5905 136.594 60.5905C136.789 60.5905 136.959 60.5509 137.104 60.4717C137.252 60.3899 137.375 60.2788 137.472 60.1383C137.569 59.9978 137.642 59.8369 137.69 59.6555C137.742 59.4716 137.767 59.2762 137.767 59.0693V58.9812C137.767 58.7768 137.742 58.5839 137.69 58.4026C137.642 58.2187 137.568 58.0565 137.468 57.916C137.371 57.7729 137.248 57.6605 137.1 57.5788C136.955 57.497 136.784 57.4562 136.587 57.4562C136.393 57.4562 136.222 57.497 136.074 57.5788C135.928 57.6605 135.805 57.7729 135.705 57.916C135.608 58.0565 135.535 58.2187 135.487 58.4026C135.439 58.5839 135.414 58.7768 135.414 58.9812ZM142.055 56.9504H142.698V61.0081C142.698 61.3734 142.624 61.6851 142.476 61.943C142.328 62.201 142.121 62.3965 141.855 62.5292C141.592 62.6647 141.288 62.7323 140.943 62.7323C140.8 62.7323 140.632 62.7093 140.438 62.6634C140.246 62.6199 140.057 62.5446 139.871 62.4373C139.687 62.3326 139.532 62.1908 139.407 62.012L139.779 61.5905C139.952 61.8 140.133 61.9456 140.323 62.0273C140.515 62.1091 140.703 62.1499 140.89 62.1499C141.114 62.1499 141.309 62.1078 141.472 62.0235C141.636 61.9392 141.762 61.814 141.851 61.648C141.943 61.4845 141.989 61.2827 141.989 61.0426V57.8623L142.055 56.9504ZM139.2 59.0693V58.9888C139.2 58.6721 139.237 58.3847 139.311 58.1267C139.388 57.8661 139.496 57.6426 139.637 57.4562C139.78 57.2697 139.952 57.1266 140.154 57.027C140.356 56.9248 140.583 56.8738 140.836 56.8738C141.097 56.8738 141.324 56.9197 141.518 57.0117C141.715 57.1011 141.881 57.2327 142.016 57.4064C142.154 57.5775 142.263 57.7844 142.342 58.0271C142.421 58.2698 142.476 58.5444 142.507 58.8509V59.2034C142.479 59.5074 142.424 59.7807 142.342 60.0234C142.263 60.266 142.154 60.4729 142.016 60.6441C141.881 60.8152 141.715 60.9468 141.518 61.0388C141.322 61.1282 141.091 61.1729 140.828 61.1729C140.581 61.1729 140.356 61.1205 140.154 61.0157C139.955 60.911 139.784 60.7642 139.641 60.5751C139.498 60.3861 139.388 60.1639 139.311 59.9084C139.237 59.6504 139.2 59.3707 139.2 59.0693ZM139.909 58.9888V59.0693C139.909 59.2762 139.929 59.4703 139.97 59.6517C140.013 59.8331 140.078 59.9927 140.165 60.1307C140.255 60.2686 140.369 60.3772 140.507 60.4563C140.645 60.533 140.809 60.5713 141.001 60.5713C141.236 60.5713 141.43 60.5215 141.583 60.4219C141.736 60.3222 141.858 60.1907 141.947 60.0272C142.039 59.8637 142.111 59.6862 142.162 59.4946V58.5712C142.134 58.4307 142.09 58.2953 142.032 58.165C141.975 58.0322 141.901 57.9147 141.809 57.8125C141.72 57.7078 141.609 57.6248 141.476 57.5635C141.343 57.5021 141.187 57.4715 141.008 57.4715C140.814 57.4715 140.647 57.5124 140.507 57.5941C140.369 57.6733 140.255 57.7831 140.165 57.9236C140.078 58.0616 140.013 58.2225 139.97 58.4064C139.929 58.5878 139.909 58.7819 139.909 58.9888ZM144.545 56.9504V61.0962H143.832V56.9504H144.545ZM143.779 55.8507C143.779 55.7357 143.813 55.6387 143.882 55.5595C143.954 55.4803 144.059 55.4407 144.197 55.4407C144.332 55.4407 144.435 55.4803 144.507 55.5595C144.581 55.6387 144.618 55.7357 144.618 55.8507C144.618 55.9605 144.581 56.0551 144.507 56.1342C144.435 56.2109 144.332 56.2492 144.197 56.2492C144.059 56.2492 143.954 56.2109 143.882 56.1342C143.813 56.0551 143.779 55.9605 143.779 55.8507ZM148.128 60.3874V58.2531C148.128 58.0897 148.094 57.9479 148.028 57.8278C147.964 57.7052 147.867 57.6107 147.737 57.5443C147.607 57.4779 147.446 57.4447 147.254 57.4447C147.075 57.4447 146.918 57.4753 146.783 57.5366C146.65 57.5979 146.545 57.6784 146.469 57.778C146.394 57.8776 146.357 57.9849 146.357 58.0999H145.649C145.649 57.9517 145.687 57.8048 145.764 57.6592C145.84 57.5136 145.95 57.3821 146.093 57.2646C146.239 57.1445 146.412 57.05 146.614 56.981C146.819 56.9095 147.046 56.8738 147.296 56.8738C147.598 56.8738 147.863 56.9248 148.093 57.027C148.326 57.1292 148.507 57.2837 148.638 57.4906C148.77 57.695 148.837 57.9517 148.837 58.2608V60.192C148.837 60.3299 148.848 60.4768 148.871 60.6326C148.896 60.7884 148.934 60.9225 148.982 61.0349V61.0962H148.243C148.207 61.0145 148.179 60.9059 148.158 60.7705C148.138 60.6326 148.128 60.5049 148.128 60.3874ZM148.25 58.5827L148.258 59.0808H147.542C147.34 59.0808 147.159 59.0974 147.001 59.1306C146.843 59.1612 146.71 59.2085 146.603 59.2724C146.495 59.3362 146.414 59.4167 146.357 59.5138C146.301 59.6083 146.273 59.7194 146.273 59.8471C146.273 59.9774 146.302 60.0962 146.361 60.2035C146.42 60.3107 146.508 60.3963 146.626 60.4602C146.746 60.5215 146.893 60.5521 147.066 60.5521C147.283 60.5521 147.475 60.5062 147.641 60.4142C147.807 60.3222 147.939 60.2098 148.036 60.077C148.135 59.9442 148.189 59.8152 148.197 59.69L148.5 60.031C148.482 60.1383 148.433 60.2571 148.354 60.3874C148.275 60.5177 148.168 60.6428 148.036 60.7629C147.906 60.8804 147.75 60.9787 147.568 61.0579C147.389 61.1346 147.187 61.1729 146.963 61.1729C146.682 61.1729 146.435 61.1179 146.223 61.0081C146.014 60.8983 145.851 60.7514 145.733 60.5674C145.618 60.381 145.56 60.1728 145.56 59.9429C145.56 59.7207 145.604 59.5253 145.691 59.3567C145.778 59.1855 145.903 59.0437 146.066 58.9314C146.23 58.8164 146.426 58.7295 146.657 58.6708C146.887 58.612 147.143 58.5827 147.427 58.5827H148.25ZM149.963 60.7207C149.963 60.6007 150 60.4998 150.074 60.418C150.151 60.3337 150.261 60.2916 150.404 60.2916C150.547 60.2916 150.655 60.3337 150.729 60.418C150.806 60.4998 150.844 60.6007 150.844 60.7207C150.844 60.8382 150.806 60.9378 150.729 61.0196C150.655 61.1013 150.547 61.1422 150.404 61.1422C150.261 61.1422 150.151 61.1013 150.074 61.0196C150 60.9378 149.963 60.8382 149.963 60.7207Z" fill="#848484"/>
</g>
<defs>
<linearGradient id="paint0_linear_38_533" x1="25.6116" y1="0.319702" x2="25.6116" y2="51.1645" gradientUnits="userSpaceOnUse">
<stop/>
<stop offset="1" stop-color="#C9C9C9" stop-opacity="0.31"/>
</linearGradient>
<linearGradient id="paint1_linear_38_533" x1="11.52" y1="2.17212" x2="11.52" y2="50.0941" gradientUnits="userSpaceOnUse">
<stop/>
<stop offset="1" stop-color="#C9C9C9" stop-opacity="0.31"/>
</linearGradient>
<clipPath id="clip0_38_533">
<rect width="151.339" height="7.84722" fill="white" transform="translate(0 54.9305)"/>
</clipPath>
</defs>
</svg>
