<svg width="531" height="726" viewBox="0 0 531 726" fill="none" xmlns="http://www.w3.org/2000/svg">
<path d="M397.33 648.17C397.33 683.019 425.606 711.27 460.486 711.27C495.366 711.27 523.642 683.019 523.642 648.17H397.33ZM523.642 648.17V17.1686L397.33 32.1434V648.17H523.642Z" fill="#4B4B4B"/>
<path d="M531 681.192C531.103 711.603 499.988 731.125 461.503 724.795C423.017 718.463 391.734 688.678 391.631 658.265L531 681.192ZM391.631 658.265C391.434 600.333 372.356 570.868 350.77 549.447C338.249 537.02 322.464 524.99 301.629 510.77C284.974 499.402 252.877 478.747 230.277 462.913C176.373 425.15 118.059 376.386 74.4971 300.436C31.7502 225.907 6.09126 130.285 4.90527 0L144.27 22.4281C145.363 142.467 169.066 219.526 199.11 271.908C228.339 322.868 266.243 355.246 308.335 384.734C333.732 402.526 349.575 412.021 377.848 431.317C401.94 447.761 428.068 466.906 451.491 490.151C501.794 540.073 530.724 599.935 531 681.192L391.631 658.265Z" fill="#E38744"/>
<path d="M0.00239003 647.613C-0.2988 682.469 27.9049 710.968 62.9971 711.268C98.0893 711.567 126.781 683.553 127.083 648.696L0.00239003 647.613ZM5.36345 26.9792L0.00239003 647.613L127.083 648.696L132.443 28.0623L5.36345 26.9792Z" fill="#E38744"/>
<path d="M238.521 679.386C273.401 679.386 301.677 651.11 301.677 616.23C301.677 581.35 273.401 553.074 238.521 553.074C203.641 553.074 175.365 581.35 175.365 616.23C175.365 651.11 203.641 679.386 238.521 679.386Z" fill="#4B4B4B"/>
</svg>
