<svg width="63" height="63" viewBox="0 0 63 63" fill="none" xmlns="http://www.w3.org/2000/svg">
<path d="M62.6723 30.6771C62.8734 30.9279 63 31.2364 63 31.5707C63 32.2393 62.5158 32.805 61.8306 33.0236C59.0597 34.7143 44.2372 44.325 33.1314 61.9971C32.9154 62.4664 32.4536 62.8457 31.8801 62.955C31.7311 62.9871 31.5821 63 31.4257 63C30.8149 63 30.2489 62.7557 29.936 62.2993C29.8541 62.19 29.7871 62.0743 29.7349 61.9457C28.2973 59.535 18.7484 44.28 1.08791 32.9336C0.447341 32.6957 0.000429723 32.1493 0.000429723 31.5064C0.000429723 31.4936 0.000429723 31.4807 0.000429723 31.4743C-0.0070188 31.1786 0.0823633 30.8829 0.268576 30.6257C0.477135 30.33 0.797421 30.1114 1.1624 29.9893C3.45654 28.6071 18.4504 19.125 29.7722 1.20214C29.9435 0.514286 30.666 0 31.5151 0C31.8652 0 32.1929 0.09 32.4685 0.237857C32.8484 0.424286 33.1389 0.726429 33.2804 1.09286C34.3828 2.96357 43.9243 18.5979 62.0242 30.1757C62.2924 30.2979 62.5158 30.4714 62.6723 30.6771Z" fill="black"/>
<path d="M23.52 25.672C24.704 25.672 25.7387 25.912 26.624 26.392C27.52 26.872 28.208 27.5387 28.688 28.392C29.168 29.2453 29.408 30.216 29.408 31.304C29.408 32.3813 29.168 33.352 28.688 34.216C28.208 35.08 27.52 35.7627 26.624 36.264C25.7387 36.7547 24.704 37 23.52 37H18.8V25.672H23.52ZM23.2 33.832C24 33.832 24.6347 33.6133 25.104 33.176C25.5733 32.7387 25.808 32.1147 25.808 31.304C25.808 30.4933 25.5733 29.8693 25.104 29.432C24.6347 28.9947 24 28.776 23.2 28.776H22.352V33.832H23.2ZM44.3066 25.672V37H40.7706V31.352L39.0266 37H35.9866L34.2426 31.352V37H30.6906V25.672H35.0426L37.5386 32.472L39.9706 25.672H44.3066Z" fill="white"/>
</svg>
