<svg width="531" height="726" viewBox="0 0 531 726" fill="none" xmlns="http://www.w3.org/2000/svg">
<path d="M397.33 648.177C397.33 683.026 425.606 711.277 460.486 711.277C495.366 711.277 523.642 683.026 523.642 648.177H397.33ZM523.642 648.177V17.1755L397.33 32.1504V648.177H523.642Z" fill="#4B4B4B"/>
<path d="M531 681.199C531.103 711.61 499.988 731.132 461.503 724.802C423.017 718.47 391.734 688.685 391.631 658.272L531 681.199ZM391.631 658.272C391.434 600.34 372.356 570.875 350.77 549.454C338.249 537.027 322.464 524.997 301.629 510.777C284.974 499.409 252.877 478.754 230.277 462.92C176.373 425.157 118.059 376.393 74.4971 300.443C31.7502 225.913 6.09126 130.292 4.90527 0.00695801L144.27 22.4351C145.363 142.474 169.066 219.533 199.11 271.915C228.339 322.875 266.243 355.253 308.335 384.741C333.732 402.533 349.575 412.028 377.848 431.324C401.94 447.768 428.068 466.913 451.491 490.158C501.794 540.08 530.724 599.942 531 681.199L391.631 658.272Z" fill="#E38744"/>
<path d="M0.00239003 647.62C-0.2988 682.476 27.9049 710.975 62.9971 711.275C98.0893 711.574 126.781 683.56 127.083 648.703L0.00239003 647.62ZM5.36345 26.9862L0.00239003 647.62L127.083 648.703L132.443 28.0693L5.36345 26.9862Z" fill="#E38744"/>
<path d="M238.521 679.393C273.401 679.393 301.677 651.117 301.677 616.237C301.677 581.357 273.401 553.081 238.521 553.081C203.641 553.081 175.365 581.357 175.365 616.237C175.365 651.117 203.641 679.393 238.521 679.393Z" fill="#4B4B4B"/>
</svg>
