<svg width="13" height="13" viewBox="0 0 13 13" fill="none" xmlns="http://www.w3.org/2000/svg">
<g id="Group">
<path id="Vector" d="M6.5 12C3.46265 12 1 9.53735 1 6.5C1 3.46265 3.46265 1 6.5 1C9.53735 1 12 3.46265 12 6.5C12 9.53735 9.53735 12 6.5 12ZM6.5 1.49949C3.73878 1.49949 1.49949 3.73878 1.49949 6.5C1.49949 9.26122 3.73878 11.5005 6.5 11.5005C9.26122 11.5005 11.5005 9.26235 11.5005 6.5C11.5005 3.73878 9.26122 1.49949 6.5 1.49949ZM8.75051 9.25224C8.61245 9.25224 8.50133 9.13888 8.50133 8.99969H8.48449C8.36214 8.01306 7.52143 7.24867 6.50224 7.24867C5.48194 7.24867 4.64235 8.01306 4.52 8.99969H4.49867C4.49867 9.13888 4.38755 9.25224 4.25061 9.25224C4.11367 9.25224 4.00255 9.13888 4.00255 8.99969C4.00255 8.9548 4.01714 8.91439 4.03735 8.87735C4.16643 8.02316 4.71755 7.30929 5.48082 6.96806C4.8949 6.61898 4.50092 5.98143 4.50092 5.24959C4.50092 4.1451 5.39663 3.24939 6.50112 3.24939C7.60561 3.24939 8.50133 4.1451 8.50133 5.24959C8.50133 5.98143 8.10735 6.6201 7.52031 6.96806C8.2802 7.30816 8.8302 8.0198 8.96041 8.86949C8.98398 8.90765 9.00082 8.95031 9.00082 8.99969C8.99969 9.13888 8.88857 9.25224 8.75051 9.25224ZM8.00296 5.24959C8.00296 4.42122 7.33061 3.75112 6.5 3.75112C5.67051 3.75112 4.99704 4.42235 4.99704 5.24959C4.99704 6.07684 5.66939 6.74806 6.5 6.74806C7.32949 6.74918 8.00296 6.07796 8.00296 5.24959Z" fill="#9A9A9A" stroke="#9A9A9A" stroke-width="0.5"/>
</g>
</svg>
